HIERARCHY
ROOT Hips
{
	OFFSET 20.463800 7.826293 43.778099
	CHANNELS 6 Xposition Yposition Zposition Zrotation Xrotation Yrotation
	JOINT Chest
	{
		OFFSET -0.076000 1.394599 8.347801
		CHANNELS 6 Xposition Yposition Zposition Zrotation Xrotation Yrotation
		JOINT Chest2
		{
			OFFSET 0.000000 0.000000 3.321602
			CHANNELS 6 Xposition Yposition Zposition Zrotation Xrotation Yrotation
			JOINT Neck
			{
				OFFSET 0.000000 -0.000002 7.732101
				CHANNELS 6 Xposition Yposition Zposition Zrotation Xrotation Yrotation
				JOINT Head
				{
					OFFSET 0.000000 0.000000 2.173897
					CHANNELS 6 Xposition Yposition Zposition Zrotation Xrotation Yrotation
					End Site
					{
						OFFSET 0.000000 -0.000002 10.080803
					}
				}
			}
			JOINT LeftCollar
			{
				OFFSET 2.718100 -2.003101 4.670502
				CHANNELS 6 Xposition Yposition Zposition Zrotation Xrotation Yrotation
				JOINT LeftShoulder
				{
					OFFSET 4.147100 0.000000 0.000000
					CHANNELS 6 Xposition Yposition Zposition Zrotation Xrotation Yrotation
					JOINT LeftElbow
					{
						OFFSET 0.000000 0.000002 -10.254799
						CHANNELS 6 Xposition Yposition Zposition Zrotation Xrotation Yrotation
						JOINT LeftWrist
						{
							OFFSET 0.000000 0.000002 -12.664398
							CHANNELS 6 Xposition Yposition Zposition Zrotation Xrotation Yrotation
							End Site
							{
								OFFSET 0.000000 0.000000 -2.173901
							}
						}
					}
				}
			}
			JOINT RightCollar
			{
				OFFSET -2.489500 -2.085301 4.979698
				CHANNELS 6 Xposition Yposition Zposition Zrotation Xrotation Yrotation
				JOINT RightShoulder
				{
					OFFSET -4.160400 0.000000 0.000000
					CHANNELS 6 Xposition Yposition Zposition Zrotation Xrotation Yrotation
					JOINT RightElbow
					{
						OFFSET 0.000000 0.000002 -10.253998
						CHANNELS 6 Xposition Yposition Zposition Zrotation Xrotation Yrotation
						JOINT RightWrist
						{
							OFFSET 0.000000 0.000002 -12.768700
							CHANNELS 6 Xposition Yposition Zposition Zrotation Xrotation Yrotation
							End Site
							{
								OFFSET 0.000000 0.000000 -2.173901
							}
						}
					}
				}
			}
		}
	}
	JOINT LeftHip
	{
		OFFSET 2.212400 -0.073599 -2.641499
		CHANNELS 6 Xposition Yposition Zposition Zrotation Xrotation Yrotation
		JOINT LeftKnee
		{
			OFFSET 0.000000 0.000003 -17.950598
			CHANNELS 6 Xposition Yposition Zposition Zrotation Xrotation Yrotation
			JOINT LeftAnkle
			{
				OFFSET 0.000000 0.000003 -19.053900
				CHANNELS 6 Xposition Yposition Zposition Zrotation Xrotation Yrotation
				End Site
				{
					OFFSET 0.000000 -8.430400 -0.000001
				}
			}
		}
	}
	JOINT RightHip
	{
		OFFSET -2.162800 -0.306099 -2.581299
		CHANNELS 6 Xposition Yposition Zposition Zrotation Xrotation Yrotation
		JOINT RightKnee
		{
			OFFSET 0.000000 0.000003 -18.327099
			CHANNELS 6 Xposition Yposition Zposition Zrotation Xrotation Yrotation
			JOINT RightAnkle
			{
				OFFSET 0.000000 0.000003 -18.423401
				CHANNELS 6 Xposition Yposition Zposition Zrotation Xrotation Yrotation
				End Site
				{
					OFFSET 0.000000 -8.995800 -0.000002
				}
			}
		}
	}
}
MOTION
Frames: 6
Frame Time: 0.033334
-11.052496 20.662895 41.394802 1519.507704 4.363654 -17.005368 -0.076001 1.394599 8.347801 7.402631 -14.975261 -8.411387 -0.000004 -0.000000 3.321604 1.082856 -5.190899 0.059632 0.000006 -0.000000 7.732097 -29.691894 -19.898153 -0.550741 0.000001 0.000001 2.173898 -5.363227 -10.347930 -1.579006 2.718107 -2.003101 4.670504 2.893270 6.353508 -10.569408 4.147098 0.000000 0.000002 11.164380 -20.337725 -106.082769 -0.000000 0.000005 -10.254795 55.416156 4.239059 -5.627772 -0.000001 0.000011 -12.664399 420.142476 366.572045 -360.604864 -2.489495 -2.085299 4.979692 8.009148 11.439814 -5.226185 -4.160411 0.000001 -0.000003 -187.214529 184.648782 274.030878 0.000001 0.000003 -10.254000 -65.111497 -1.827807 2.360237 -0.000000 -0.000007 -12.768698 -92.363371 -13.724148 357.407298 2.212397 -0.073597 -2.641503 -17.189394 -0.023346 21.185695 0.000004 -0.000001 -17.950602 -8.235751 34.251257 29.041203 0.000000 0.000006 -19.053900 5.189634 16.871061 10.039306 -2.162799 -0.306095 -2.581298 316.587819 -44.506445 -1.005003 -0.000002 -0.000007 -18.327097 -164.158501 120.598369 -189.853454 -0.000003 0.000004 -18.423401 -9.999760 0.064918 -373.718745 
-12.229898 21.302694 41.244602 1523.571284 7.238282 -19.170038 -0.076004 1.394602 8.347803 10.083530 -15.787250 -9.549215 0.000002 -0.000001 3.321601 0.620179 -5.953878 0.118340 0.000002 -0.000003 7.732095 -28.998313 -22.222271 0.534008 0.000003 -0.000001 2.173904 -5.870488 -10.234580 -0.945537 2.718109 -2.003099 4.670506 3.776456 5.924036 -5.766309 4.147103 0.000002 -0.000000 0.129521 -32.842722 -123.233169 0.000000 0.000005 -10.254800 86.072924 0.346817 -0.366629 -0.000001 0.000002 -12.664401 372.811587 356.820694 -367.186954 -2.489497 -2.085300 4.979697 9.421394 11.734781 -9.246378 -4.160405 0.000001 0.000008 -174.435313 183.723619 280.317876 0.000001 0.000006 -10.254007 -69.323244 -1.963326 0.958495 0.000001 0.000002 -12.768699 -85.229471 -11.819819 364.589569 2.212397 -0.073596 -2.641503 -14.163760 -4.903457 21.778376 0.000006 -0.000003 -17.950603 -16.923884 34.727813 34.207247 -0.000000 -0.000001 -19.053904 11.454494 11.233868 15.243895 -2.162804 -0.306095 -2.581302 297.038916 -49.918967 -16.595159 0.000001 -0.000006 -18.327095 -156.742542 118.564516 -187.683790 -0.000002 0.000002 -18.423403 -10.022524 1.945701 -370.443041 
-13.660498 21.785194 41.007404 1528.198765 9.365577 -21.790282 -0.076002 1.394599 8.347797 10.741072 -13.821745 -10.095464 0.000002 0.000001 3.321596 0.966819 -7.401654 0.172768 0.000002 0.000001 7.732102 -27.918169 -24.641904 1.410302 -0.000003 -0.000001 2.173898 -4.594852 -10.243209 -1.101552 2.718099 -2.003100 4.670506 2.441243 7.468261 -3.759299 4.147104 -0.000001 0.000002 -6.054904 -35.522393 -135.783819 -0.000001 0.000009 -10.254787 101.543350 -4.497887 4.162293 -0.000000 0.000002 -12.664402 353.914557 351.187454 -370.398235 -2.489505 -2.085299 4.979693 10.358101 12.506038 -11.002642 -4.160405 -0.000002 0.000003 -156.975205 188.840223 281.892508 0.000003 -0.000001 -10.254003 -76.482341 -2.788071 -0.571430 0.000003 -0.000004 -12.768705 -74.516346 -12.159225 359.889033 2.212402 -0.073599 -2.641499 -10.922533 -8.926606 23.282737 0.000006 -0.000003 -17.950600 -18.743081 37.275802 36.669196 0.000002 0.000001 -19.053900 14.891682 7.412989 14.032473 -2.162803 -0.306096 -2.581299 259.583470 -44.560028 -47.392722 -0.000001 -0.000006 -18.327103 -141.070181 114.289938 -183.408980 -0.000005 0.000002 -18.423403 -7.914587 3.689269 -366.549724 
-15.274298 22.010593 40.820908 1531.860511 13.808977 -22.843050 -0.076007 1.394601 8.347803 13.381365 -13.491240 -11.386949 -0.000002 -0.000001 3.321595 0.789976 -8.344573 0.002243 -0.000007 -0.000002 7.732099 -24.206392 -26.825554 2.599164 -0.000001 0.000003 2.173889 -3.474762 -9.516794 -1.792490 2.718099 -2.003101 4.670504 0.865051 8.891452 -3.179691 4.147107 0.000003 -0.000006 -7.179199 -31.027996 -143.908152 -0.000003 0.000002 -10.254803 116.526251 -11.043231 9.105867 0.000005 0.000001 -12.664393 340.084217 348.210038 -379.585769 -2.489507 -2.085301 4.979691 11.483425 11.567114 -12.135490 -4.160403 -0.000003 -0.000005 -140.493631 194.364357 280.497236 0.000002 0.000002 -10.253998 -79.169051 -3.784807 -4.614185 -0.000002 0.000001 -12.768705 -60.408003 -15.757212 349.871222 2.212396 -0.073598 -2.641495 -4.844410 -13.467742 23.943879 0.000005 -0.000002 -17.950603 -19.166754 39.874279 38.315613 0.000004 0.000005 -19.053900 19.914520 1.259112 15.684406 -2.162802 -0.306098 -2.581298 247.985317 -38.707170 -61.447585 0.000006 -0.000007 -18.327103 -135.723440 113.376981 -182.055919 -0.000004 0.000002 -18.423401 -8.049056 4.005186 -367.599770 
-16.940397 21.858093 40.667000 1536.878023 15.924274 -22.977897 -0.076004 1.394595 8.347799 11.402003 -10.478019 -13.967049 -0.000002 -0.000002 3.321596 2.002302 -9.552364 -0.206361 -0.000003 -0.000004 7.732108 -17.733987 -27.331393 3.615683 0.000003 -0.000000 2.173897 -3.337186 -10.429971 0.536112 2.718098 -2.003102 4.670504 -0.522343 10.269227 -0.074259 4.147103 0.000004 -0.000002 -27.420112 -29.934998 -163.703160 -0.000008 0.000004 -10.254798 106.388263 -20.342890 14.795740 0.000001 -0.000000 -12.664409 331.750074 347.431096 -393.910342 -2.489502 -2.085299 4.979700 17.066524 16.997933 -17.023027 -4.160396 -0.000003 0.000004 -126.630888 197.504919 283.681662 -0.000002 -0.000008 -10.254004 -75.648190 -4.487813 -9.980055 0.000000 0.000009 -12.768702 -53.402800 -13.317692 354.367863 2.212398 -0.073604 -2.641500 -1.140186 -15.890100 23.411472 0.000002 -0.000005 -17.950602 -18.673626 40.908397 40.231153 0.000001 0.000004 -19.053904 25.629435 -5.109232 18.578103 -2.162802 -0.306103 -2.581294 241.283727 -32.072314 -68.844277 0.000004 -0.000007 -18.327101 -141.702738 114.108344 -172.597309 -0.000002 0.000002 -18.423399 -7.038127 6.588125 -361.244443 
-18.627893 21.475094 40.569302 1544.751209 16.923834 -23.351539 -0.076003 1.394598 8.347797 11.501722 -7.783524 -16.114598 0.000006 0.000002 3.321599 1.265121 -9.573050 -0.022044 -0.000011 -0.000002 7.732100 -12.907803 -29.427050 4.725389 -0.000002 -0.000002 2.173890 -2.812125 -10.879022 1.637336 2.718093 -2.003102 4.670507 -7.194852 16.046930 -16.515532 4.147104 -0.000000 -0.000003 -21.382124 -35.479332 -156.170008 -0.000002 -0.000000 -10.254797 106.521895 -28.005488 23.565005 -0.000006 0.000006 -12.664392 120.903241 387.376856 -302.534924 -2.489512 -2.085301 4.979695 17.234748 15.980177 -17.060513 -4.160399 -0.000003 -0.000001 -116.462170 198.947469 277.579981 0.000000 -0.000000 -10.254001 -80.818862 -4.891811 -11.732435 -0.000000 0.000001 -12.768700 -33.839455 -39.161617 360.440530 2.212398 -0.073598 -2.641501 1.717969 -17.749018 22.861623 0.000004 -0.000003 -17.950602 -16.385743 42.214237 40.178922 -0.000005 0.000001 -19.053902 31.881110 -8.053463 19.794810 -2.162799 -0.306097 -2.581300 230.705403 -17.714538 -76.067284 0.000002 -0.000004 -18.327106 -139.064933 113.835286 -164.577766 -0.000002 -0.000000 -18.423403 -4.265667 8.201276 -357.994421 
